<svg width="166" height="166" viewBox="0 0 166 166" fill="none" xmlns="http://www.w3.org/2000/svg">
<path d="M84.8936 89.5553H80.7751C80.3039 89.5553 79.9219 89.9373 79.9219 90.4085V149.702C79.9219 150.173 80.3039 150.555 80.7751 150.555H84.8936C85.3648 150.555 85.7468 150.173 85.7468 149.702V90.4085C85.7468 89.9373 85.3648 89.5553 84.8936 89.5553Z" fill="#CFE5E3"/>
<path d="M108.161 91.5032C98.8477 98.8645 87.1148 113.302 86.9065 122.929C86.3886 115.304 119.115 84.3428 108.161 91.5032Z" fill="#B5D6B5"/>
<path d="M151.355 92.2312C151.331 92.1789 151.293 92.1748 151.243 92.2088C136.128 127.117 98.0779 119.186 84.1853 148.553C83.8276 149.329 83.3055 149.937 83.0225 150.754L82.7129 152.211C83.0217 152.159 83.3346 151.961 83.6765 151.613C100.009 135.132 126.203 132.504 140.527 113.309C144.341 109.06 147.588 103.702 149.681 98.3533C150.309 96.6477 150.915 94.8341 151.341 93.0513C151.417 92.7309 151.41 92.4753 151.355 92.2321V92.2312Z" fill="#CFE5E3"/>
<path d="M126.062 93.3318C126.481 93.2098 128.334 93.2787 128.601 93.604C129.941 95.2366 124.992 95.2258 125.246 94.0896C125.283 93.9236 125.861 93.3907 126.062 93.3326V93.3318Z" fill="#71B698"/>
<path d="M146.436 63.1605C146.499 61.8532 145.58 59.999 147.329 59.8131C147.19 60.8896 147.147 62.2815 146.436 63.1605Z" fill="#50A68C"/>
<path d="M148.629 54.5849C147.668 53.0817 147.281 53.3307 147.281 53.3307C147.763 87.7027 102.167 93.853 90.7911 122.951C88.6215 124.777 81.0967 154.702 84.6856 148.178C102.849 115.772 166.953 116.24 149.23 55.9079C149.093 55.4414 148.89 54.9932 148.629 54.584V54.5849Z" fill="#06A551"/>
<path d="M125.236 36.7748C131.617 36.7748 136.79 31.6017 136.79 25.2203C136.79 18.839 131.617 13.6659 125.236 13.6659C118.855 13.6659 113.682 18.839 113.682 25.2203C113.682 31.6017 118.855 36.7748 125.236 36.7748Z" fill="#014E31"/>
<path d="M149.229 55.9079C149.092 55.4414 148.228 53.7441 147.967 53.3341C147.006 51.8309 147.28 53.3299 147.28 53.3299" fill="#65AF8D"/>
<path d="M57.8365 91.6269C67.1499 98.9882 78.8828 113.425 79.0911 123.052C79.609 115.427 46.8821 84.4665 57.8365 91.6269Z" fill="#B5D6B5"/>
<path d="M14.6441 92.354C14.6674 92.3017 14.7056 92.2976 14.7562 92.3316C29.8705 127.24 67.921 119.309 81.8135 148.676C82.1713 149.452 82.6933 150.06 82.9764 150.877L83.286 152.334C82.9772 152.282 82.6643 152.083 82.3223 151.736C65.9896 135.255 39.7956 132.626 25.4715 113.432C21.6576 109.183 18.4107 103.825 16.3182 98.4761C15.6899 96.7705 15.084 94.9569 14.6574 93.1741C14.5819 92.8537 14.5885 92.5981 14.6441 92.3549V92.354Z" fill="#CFE5E3"/>
<path d="M17.3703 54.7078C18.3314 53.2047 18.7182 53.4537 18.7182 53.4537C18.236 87.8256 63.832 93.9759 75.208 123.074C77.3776 124.9 84.9024 154.825 81.3135 148.301C63.1489 115.895 -0.953612 116.363 16.7694 56.0316C16.9063 55.5652 17.1088 55.117 17.3703 54.7078Z" fill="#06A551"/>
<path d="M40.7615 36.8976C47.1428 36.8976 52.3159 31.7245 52.3159 25.3431C52.3159 18.9618 47.1428 13.7887 40.7615 13.7887C34.3801 13.7887 29.207 18.9618 29.207 25.3431C29.207 31.7245 34.3801 36.8976 40.7615 36.8976Z" fill="#014E31"/>
<path d="M102.675 84.3445C112.901 80.7083 124.816 73.8508 126.486 62.3819C126.515 60.0405 126.355 56.923 125.506 54.5907C125.062 53.3955 124.432 52.4908 123.553 52.1638C123.214 52.0608 122.613 51.9098 121.863 51.9123C118.489 51.9222 116.887 55.0248 113.304 56.9047C112.069 57.553 110.071 58.3332 107.123 58.4062C111.199 54.2512 115.275 50.0954 119.351 45.9404C122.649 43.3558 125.997 40.5288 130.252 39.8864C140.516 38.4696 149.166 49.7443 147.453 59.2237L147.449 59.2652C146.606 73.4641 130.611 86.4868 118.336 93.8464C118.172 93.8721 118.255 93.6795 118.649 93.1973C119.418 92.2478 120.243 91.4651 121.065 90.484C124.188 86.5814 125.393 83.6631 127.099 79.0964C127.183 78.8342 127.492 78.1353 127.191 78.1029C121.51 81.0254 108.567 87.8372 102.343 85.2617C101.313 84.8616 102.049 84.5529 102.677 84.3462L102.675 84.3445Z" fill="#014E31"/>
<path d="M100.163 41.1804C99.9766 39.1369 101.986 30.2468 104.955 25.4037C105.636 24.294 104.927 22.8515 103.632 22.7212C94.9966 21.853 77.7874 23.435 71.5408 37.7309C64.4219 54.0229 81.2278 53.1423 81.2278 53.1423L100.162 41.1804H100.163Z" fill="#E13F47"/>
<path d="M65.2647 41.1804C65.4506 39.1369 63.4412 30.2468 60.4723 25.4037C59.7917 24.294 60.5005 22.8515 61.7953 22.7212C70.4306 21.853 87.6399 23.435 93.8864 37.7309C101.005 54.0229 84.1995 53.1423 84.1995 53.1423L65.2655 41.1804H65.2647Z" fill="#C21B3A"/>
<path d="M105.128 65.1815C105.128 55.8299 106.612 43.2305 111.468 34.7885C112.176 33.5576 112.124 32.0321 111.336 30.8518C110.547 29.6716 109.158 29.0424 107.75 29.225C70.8029 34 70.9066 69.1514 71.1083 83.4805C74.4931 85.3455 78.4646 86.3838 82.7126 86.3838C95.092 86.3838 105.128 77.5609 105.128 65.1815Z" fill="#C21B3A"/>
<path d="M60.2986 65.1815C60.2986 55.8299 58.8137 43.2305 53.9582 34.7885C53.2503 33.5576 53.3017 32.0321 54.0902 30.8518C54.8787 29.6716 56.2681 29.0424 57.6758 29.225C94.6241 34 94.5195 69.1514 94.3178 83.4805C90.9331 85.3455 86.9615 86.3838 82.7136 86.3838C70.3341 86.3838 60.2994 77.5609 60.2994 65.1815H60.2986Z" fill="#E13F47"/>
<path d="M94.3173 83.4805C94.3655 80.031 94.4086 75.3739 93.9297 70.2246C90.2744 71.4298 87.1387 73.6865 84.4777 76.7849C80.1268 67.2051 69.5709 63.9066 64.7918 57.1811C63.536 55.4141 61.5664 54.7235 59.7246 54.9592C60.1296 58.5457 60.2973 62.0458 60.2973 65.1815C60.2973 77.561 70.3328 86.3839 82.7115 86.3839C86.9594 86.3839 90.9309 85.3447 94.3157 83.4797L94.3173 83.4805Z" fill="#C21B3A"/>
<path d="M82.7131 86.3838C67.6336 86.3838 54.2308 81.3307 58.7858 59.9259C59.0888 58.5008 60.9339 58.1364 61.778 59.3241C68.5574 68.865 82.7131 70.8337 82.7131 86.3846V86.3838Z" fill="#CFE5E3"/>
<path d="M72.7032 80.2451C68.4212 78.5727 64.5493 74.7547 62.9382 71.8472C62.6411 71.311 62.8345 70.6354 63.3707 70.3391C63.9068 70.0419 64.5816 70.2361 64.8796 70.7715C66.2632 73.2681 69.7592 76.7126 73.5108 78.1784C74.0818 78.4017 74.364 79.0449 74.1407 79.616C73.9191 80.1829 73.2784 80.47 72.7032 80.2459V80.2451Z" fill="#76BF8D"/>
<path d="M82.7129 86.3838C89.0715 86.3838 100.6 84.8225 107.046 77.4571C108.225 76.1092 107.508 73.9927 105.763 73.591C96.788 71.5276 88.8192 73.8558 82.7129 86.3838Z" fill="#CFE5E3"/>
<path d="M63.216 84.3447C52.9904 80.7084 41.0757 73.851 39.4049 62.382C39.3759 60.0406 39.5361 56.9231 40.3852 54.5908C40.8292 53.3956 41.4592 52.4909 42.3382 52.1639C42.6768 52.061 43.2786 51.9099 44.028 51.9124C47.402 51.9224 49.0047 55.0249 52.587 56.9048C53.822 57.5531 55.8207 58.3333 58.768 58.4063C54.6919 54.2513 50.6166 50.0955 46.5405 45.9405C43.242 43.3559 39.8938 40.529 35.6392 39.8865C25.3755 38.4697 16.7252 49.7444 18.4383 59.2239L18.4425 59.2654C19.2857 73.4642 35.2798 86.4869 47.5555 93.8465C47.7191 93.8722 47.6361 93.6797 47.2426 93.1974C46.4732 92.2479 45.6482 91.4652 44.8265 90.4842C41.7032 86.5815 40.4981 83.6632 38.7924 79.0966C38.7086 78.8343 38.399 78.1354 38.7003 78.103C44.3816 81.0255 57.3246 87.8373 63.548 85.2618C64.578 84.8617 63.8418 84.553 63.2143 84.3463L63.216 84.3447Z" fill="#014E31"/>
</svg>
