<svg width="71" height="71" viewBox="0 0 71 71" fill="none" xmlns="http://www.w3.org/2000/svg">
<path d="M23.075 5.9165H47.925C57.3917 5.9165 65.0834 13.6082 65.0834 23.0748V47.9248C65.0834 52.4755 63.2756 56.8398 60.0578 60.0576C56.84 63.2754 52.4757 65.0832 47.925 65.0832H23.075C13.6084 65.0832 5.91669 57.3915 5.91669 47.9248V23.0748C5.91669 18.5242 7.72444 14.1599 10.9422 10.9421C14.1601 7.72425 18.5243 5.9165 23.075 5.9165ZM22.4834 11.8332C19.6588 11.8332 16.9499 12.9552 14.9527 14.9525C12.9554 16.9497 11.8334 19.6586 11.8334 22.4832V48.5165C11.8334 54.4036 16.5963 59.1665 22.4834 59.1665H48.5167C51.3412 59.1665 54.0501 58.0445 56.0474 56.0472C58.0446 54.0499 59.1667 51.3411 59.1667 48.5165V22.4832C59.1667 16.5961 54.4038 11.8332 48.5167 11.8332H22.4834ZM51.0313 16.2707C52.012 16.2707 52.9526 16.6603 53.6461 17.3538C54.3396 18.0473 54.7292 18.9878 54.7292 19.9686C54.7292 20.9493 54.3396 21.8899 53.6461 22.5834C52.9526 23.2769 52.012 23.6665 51.0313 23.6665C50.0505 23.6665 49.1099 23.2769 48.4164 22.5834C47.7229 21.8899 47.3334 20.9493 47.3334 19.9686C47.3334 18.9878 47.7229 18.0473 48.4164 17.3538C49.1099 16.6603 50.0505 16.2707 51.0313 16.2707ZM35.5 20.7082C39.423 20.7082 43.1853 22.2666 45.9593 25.0405C48.7333 27.8145 50.2917 31.5768 50.2917 35.4998C50.2917 39.4228 48.7333 43.1852 45.9593 45.9591C43.1853 48.7331 39.423 50.2915 35.5 50.2915C31.577 50.2915 27.8147 48.7331 25.0407 45.9591C22.2668 43.1852 20.7084 39.4228 20.7084 35.4998C20.7084 31.5768 22.2668 27.8145 25.0407 25.0405C27.8147 22.2666 31.577 20.7082 35.5 20.7082ZM35.5 26.6248C33.1462 26.6248 30.8888 27.5599 29.2244 29.2243C27.5601 30.8886 26.625 33.146 26.625 35.4998C26.625 37.8536 27.5601 40.111 29.2244 41.7754C30.8888 43.4398 33.1462 44.3748 35.5 44.3748C37.8538 44.3748 40.1112 43.4398 41.7756 41.7754C43.44 40.111 44.375 37.8536 44.375 35.4998C44.375 33.146 43.44 30.8886 41.7756 29.2243C40.1112 27.5599 37.8538 26.6248 35.5 26.6248Z" fill="#FFB20F"/>
</svg>
