<svg width="73" height="73" viewBox="0 0 73 73" fill="none" xmlns="http://www.w3.org/2000/svg">
<path d="M54.75 9.125C57.1701 9.125 59.4911 10.0864 61.2024 11.7977C62.9136 13.5089 63.875 15.8299 63.875 18.25V54.75C63.875 57.1701 62.9136 59.4911 61.2024 61.2024C59.4911 62.9136 57.1701 63.875 54.75 63.875H18.25C15.8299 63.875 13.5089 62.9136 11.7977 61.2024C10.0864 59.4911 9.125 57.1701 9.125 54.75V18.25C9.125 15.8299 10.0864 13.5089 11.7977 11.7977C13.5089 10.0864 15.8299 9.125 18.25 9.125H54.75ZM54.75 15.2083H18.25C17.4433 15.2083 16.6696 15.5288 16.0992 16.0992C15.5288 16.6696 15.2083 17.4433 15.2083 18.25V54.75C15.2083 55.5567 15.5288 56.3304 16.0992 56.9008C16.6696 57.4712 17.4433 57.7917 18.25 57.7917H54.75C55.5567 57.7917 56.3304 57.4712 56.9008 56.9008C57.4712 56.3304 57.7917 55.5567 57.7917 54.75V18.25C57.7917 17.4433 57.4712 16.6696 56.9008 16.0992C56.3304 15.5288 55.5567 15.2083 54.75 15.2083ZM24.3333 30.4167C25.0783 30.4168 25.7974 30.6903 26.3541 31.1853C26.9109 31.6804 27.2665 32.3626 27.3537 33.1025L27.375 33.4583V48.6667C27.3741 49.4419 27.0773 50.1876 26.5451 50.7513C26.0129 51.3151 25.2855 51.6543 24.5116 51.6997C23.7377 51.7452 22.9756 51.4934 22.3811 50.9958C21.7866 50.4982 21.4045 49.7924 21.313 49.0225L21.2917 48.6667V33.4583C21.2917 32.6516 21.6121 31.878 22.1826 31.3076C22.753 30.7371 23.5266 30.4167 24.3333 30.4167ZM33.4583 27.375C34.1707 27.3749 34.8605 27.6248 35.4074 28.0812C35.9544 28.5375 36.3238 29.1714 36.4513 29.8722C37.064 29.5184 37.6967 29.2005 38.3463 28.9202C40.3751 28.0533 43.4137 27.5758 46.1573 28.4365C47.596 28.8928 49.0408 29.7445 50.1115 31.1953C51.0696 32.488 51.5867 34.0606 51.6901 35.8278L51.7083 36.5V48.6667C51.7075 49.4419 51.4106 50.1876 50.8784 50.7513C50.3462 51.3151 49.6189 51.6543 48.8449 51.6997C48.071 51.7452 47.3089 51.4934 46.7144 50.9958C46.1199 50.4982 45.7379 49.7924 45.6463 49.0225L45.625 48.6667V36.5C45.625 35.4963 45.3817 35.0278 45.2235 34.8119C44.9962 34.5298 44.6834 34.3291 44.3323 34.24C43.2738 33.9055 41.7499 34.0819 40.737 34.5138C39.2162 35.1647 37.8231 36.1867 36.8741 37.1327L36.5 37.5342V48.6667C36.4991 49.4419 36.2023 50.1876 35.6701 50.7513C35.1379 51.3151 34.4105 51.6543 33.6366 51.6997C32.8627 51.7452 32.1006 51.4934 31.5061 50.9958C30.9116 50.4982 30.5295 49.7924 30.438 49.0225L30.4167 48.6667V30.4167C30.4167 29.61 30.7371 28.8363 31.3076 28.2659C31.878 27.6955 32.6516 27.375 33.4583 27.375ZM24.3333 21.2917C25.14 21.2917 25.9137 21.6121 26.4841 22.1826C27.0545 22.753 27.375 23.5266 27.375 24.3333C27.375 25.14 27.0545 25.9137 26.4841 26.4841C25.9137 27.0545 25.14 27.375 24.3333 27.375C23.5266 27.375 22.753 27.0545 22.1826 26.4841C21.6121 25.9137 21.2917 25.14 21.2917 24.3333C21.2917 23.5266 21.6121 22.753 22.1826 22.1826C22.753 21.6121 23.5266 21.2917 24.3333 21.2917Z" fill="#FFB20F"/>
</svg>
