<svg width="166" height="166" viewBox="0 0 166 166" fill="none" xmlns="http://www.w3.org/2000/svg">
<path d="M84.8949 89.5554H80.7764C80.3052 89.5554 79.9232 89.9374 79.9232 90.4086V149.702C79.9232 150.173 80.3052 150.555 80.7764 150.555H84.8949C85.3661 150.555 85.7481 150.173 85.7481 149.702V90.4086C85.7481 89.9374 85.3661 89.5554 84.8949 89.5554Z" fill="#CFE5E3"/>
<path d="M108.162 91.5034C98.8489 98.8646 87.116 113.302 86.9076 122.929C86.3897 115.304 119.117 84.343 108.162 91.5034Z" fill="#B5D6B5"/>
<path d="M151.355 92.2313C151.331 92.179 151.293 92.1748 151.243 92.2089C136.128 127.117 98.0778 119.186 84.1852 148.553C83.8275 149.329 83.3054 149.937 83.0224 150.754L82.7128 152.211C83.0216 152.159 83.3345 151.961 83.6764 151.613C100.009 135.132 126.203 132.504 140.527 113.309C144.341 109.06 147.588 103.702 149.681 98.3533C150.309 96.6477 150.915 94.8341 151.341 93.0513C151.417 92.7309 151.41 92.4753 151.355 92.2321V92.2313Z" fill="#CFE5E3"/>
<path d="M126.062 93.3318C126.481 93.2098 128.335 93.2787 128.601 93.6041C129.941 95.2367 124.992 95.2259 125.246 94.0896C125.284 93.9236 125.861 93.3908 126.062 93.3327V93.3318Z" fill="#71B698"/>
<path d="M146.437 63.1605C146.499 61.8532 145.58 59.999 147.33 59.8131C147.191 60.8896 147.147 62.2815 146.437 63.1605Z" fill="#50A68C"/>
<path d="M148.629 54.585C147.668 53.0818 147.281 53.3308 147.281 53.3308C147.763 87.7028 102.167 93.8531 90.7912 122.951C88.6216 124.777 81.0968 154.702 84.6857 148.178C102.849 115.772 166.953 116.24 149.23 55.908C149.093 55.4415 148.89 54.9933 148.629 54.5841V54.585Z" fill="#06A551"/>
<path d="M125.237 36.7748C131.618 36.7748 136.791 31.6017 136.791 25.2204C136.791 18.839 131.618 13.666 125.237 13.666C118.856 13.666 113.683 18.839 113.683 25.2204C113.683 31.6017 118.856 36.7748 125.237 36.7748Z" fill="#014E31"/>
<path d="M149.23 55.908C149.093 55.4415 148.229 53.7442 147.967 53.3341C147.006 51.831 147.281 53.33 147.281 53.33" fill="#65AF8D"/>
<path d="M57.8377 91.627C67.1512 98.9883 78.884 113.425 79.0924 123.052C79.6103 115.427 46.8834 84.4666 57.8377 91.627Z" fill="#B5D6B5"/>
<path d="M14.6453 92.3541C14.6686 92.3018 14.7068 92.2977 14.7574 92.3317C29.8717 127.24 67.9222 119.309 81.8148 148.676C82.1725 149.452 82.6946 150.06 82.9776 150.877L83.2872 152.334C82.9784 152.282 82.6655 152.083 82.3235 151.736C65.9908 135.255 39.7968 132.627 25.4727 113.432C21.6588 109.183 18.4119 103.825 16.3195 98.4762C15.6911 96.7705 15.0852 94.957 14.6586 93.1741C14.5831 92.8538 14.5897 92.5981 14.6453 92.3549V92.3541Z" fill="#CFE5E3"/>
<path d="M17.3711 54.7078C18.3322 53.2047 18.719 53.4537 18.719 53.4537C18.2368 87.8256 63.8328 93.9759 75.2088 123.074C77.3784 124.9 84.9032 154.825 81.3143 148.301C63.1497 115.895 -0.952842 116.363 16.7701 56.0316C16.9071 55.5652 17.1096 55.117 17.3711 54.7078Z" fill="#06A551"/>
<path d="M40.763 36.8976C47.1443 36.8976 52.3174 31.7246 52.3174 25.3432C52.3174 18.9619 47.1443 13.7888 40.763 13.7888C34.3816 13.7888 29.2085 18.9619 29.2085 25.3432C29.2085 31.7246 34.3816 36.8976 40.763 36.8976Z" fill="#014E31"/>
<path d="M102.677 84.3446C112.902 80.7084 124.817 73.8509 126.488 62.382C126.517 60.0406 126.357 56.9231 125.508 54.5908C125.064 53.3956 124.434 52.4909 123.555 52.1639C123.216 52.0609 122.614 51.9099 121.865 51.9124C118.491 51.9223 116.888 55.0249 113.306 56.9048C112.071 57.553 110.072 58.3333 107.125 58.4063C111.201 54.2513 115.276 50.0955 119.352 45.9405C122.651 43.3559 125.999 40.5289 130.254 39.8865C140.517 38.4697 149.168 49.7444 147.454 59.2238L147.45 59.2653C146.607 73.4641 130.613 86.4869 118.337 93.8465C118.174 93.8722 118.257 93.6796 118.65 93.1974C119.42 92.2479 120.245 91.4652 121.066 90.4841C124.19 86.5815 125.395 83.6632 127.1 79.0965C127.184 78.8342 127.494 78.1354 127.193 78.103C121.511 81.0254 108.568 87.8373 102.345 85.2618C101.315 84.8617 102.051 84.5529 102.678 84.3463L102.677 84.3446Z" fill="#014E31"/>
<path d="M100.162 41.1804C99.976 39.137 101.985 30.2469 104.954 25.4038C105.635 24.2941 104.926 22.8516 103.631 22.7213C94.996 21.8531 77.7868 23.435 71.5402 37.731C64.4213 54.023 81.2271 53.1424 81.2271 53.1424L100.161 41.1804H100.162Z" fill="#E13F47"/>
<path d="M65.2654 41.1804C65.4513 39.137 63.4419 30.2469 60.473 25.4038C59.7924 24.2941 60.5012 22.8516 61.796 22.7213C70.4313 21.8531 87.6405 23.435 93.8871 37.731C101.006 54.023 84.2002 53.1424 84.2002 53.1424L65.2662 41.1804H65.2654Z" fill="#C21B3A"/>
<path d="M105.128 65.1816C105.128 55.8299 106.613 43.2305 111.468 34.7886C112.176 33.5577 112.125 32.0322 111.336 30.8519C110.548 29.6717 109.158 29.0425 107.751 29.2251C70.8031 34.0001 70.9069 69.1514 71.1086 83.4806C74.4933 85.3456 78.4649 86.3839 82.7128 86.3839C95.0923 86.3839 105.128 77.561 105.128 65.1816Z" fill="#C21B3A"/>
<path d="M60.2987 65.1816C60.2987 55.8299 58.8138 43.2305 53.9583 34.7886C53.2503 33.5577 53.3018 32.0322 54.0903 30.8519C54.8788 29.6717 56.2682 29.0425 57.6759 29.2251C94.6241 34.0001 94.5196 69.1514 94.3179 83.4806C90.9331 85.3456 86.9616 86.3839 82.7136 86.3839C70.3342 86.3839 60.2995 77.561 60.2995 65.1816H60.2987Z" fill="#E13F47"/>
<path d="M94.3179 83.4806C94.366 80.0311 94.4092 75.374 93.9303 70.2246C90.2749 71.4298 87.1392 73.6866 84.4782 76.7849C80.1274 67.2051 69.5714 63.9067 64.7923 57.1812C63.5365 55.4141 61.5669 54.7235 59.7251 54.9593C60.1302 58.5457 60.2978 62.0458 60.2978 65.1815C60.2978 77.561 70.3334 86.3839 82.712 86.3839C86.9599 86.3839 90.9315 85.3447 94.3162 83.4797L94.3179 83.4806Z" fill="#C21B3A"/>
<path d="M82.7136 86.3839C67.6342 86.3839 54.2314 81.3309 58.7864 59.926C59.0893 58.5009 60.9344 58.1365 61.7785 59.3242C68.558 68.8651 82.7136 70.8338 82.7136 86.3847V86.3839Z" fill="#CFE5E3"/>
<path d="M72.703 80.2452C68.421 78.5728 64.5491 74.7548 62.9381 71.8473C62.6409 71.3111 62.8343 70.6355 63.3705 70.3392C63.9067 70.042 64.5815 70.2363 64.8794 70.7716C66.263 73.2683 69.759 76.7128 73.5106 78.1785C74.0816 78.4018 74.3638 79.0451 74.1406 79.6161C73.919 80.183 73.2782 80.4702 72.703 80.2461V80.2452Z" fill="#76BF8D"/>
<path d="M82.7136 86.3839C89.0723 86.3839 100.601 84.8227 107.047 77.4572C108.226 76.1093 107.509 73.9928 105.764 73.5911C96.7888 71.5277 88.8199 73.8559 82.7136 86.3839Z" fill="#CFE5E3"/>
<path d="M63.2153 84.3446C52.9897 80.7084 41.075 73.8509 39.4042 62.382C39.3752 60.0405 39.5354 56.923 40.3845 54.5907C40.8285 53.3955 41.4585 52.4908 42.3375 52.1638C42.6761 52.0609 43.2779 51.9099 44.0274 51.9123C47.4013 51.9223 49.004 55.0248 52.5863 56.9048C53.8214 57.553 55.82 58.3332 58.7673 58.4063C54.6912 54.2513 50.6159 50.0955 46.5398 45.9405C43.2413 43.3559 39.8931 40.5289 35.6385 39.8865C25.3748 38.4697 16.7245 49.7444 18.4376 59.2238L18.4418 59.2653C19.285 73.4641 35.2792 86.4868 47.5549 93.8464C47.7184 93.8722 47.6354 93.6796 47.2419 93.1974C46.4725 92.2478 45.6475 91.4652 44.8258 90.4841C41.7025 86.5814 40.4974 83.6632 38.7917 79.0965C38.7079 78.8342 38.3983 78.1354 38.6996 78.103C44.3809 81.0254 57.324 87.8372 63.5473 85.2617C64.5773 84.8617 63.8411 84.5529 63.2136 84.3462L63.2153 84.3446Z" fill="#014E31"/>
</svg>
