<svg width="445" height="445" viewBox="0 0 445 445" fill="none" xmlns="http://www.w3.org/2000/svg">
<g clip-path="url(#clip0_56_50)">
<path d="M75.9733 297.603C96.7293 315.812 121.018 335.597 143.787 353.597V333.161C143.787 306.373 157.241 282.672 177.743 268.449C170.047 248.484 150.613 234.74 128.612 234.74C99.587 234.74 75.9733 258.354 75.9733 287.378V297.603Z" fill="#035034"/>
<path d="M445 166.792C445 91.883 384.275 31.157 309.365 31.157C276.313 31.157 246.032 42.9921 222.5 62.6399C198.968 42.9929 168.687 31.157 135.635 31.157C60.7251 31.1579 0 91.8838 0 166.792C0 198.766 11.8559 227.545 29.5716 251.342C34.3858 257.81 41.7892 265.765 50.9342 274.646C54.6968 251.614 68.4865 231.909 87.6641 220.179C72.9861 208.247 63.5863 190.06 63.5863 169.714C63.5863 133.859 92.7564 104.689 128.612 104.689C160.403 104.689 186.922 127.628 192.528 157.82C201.504 153.137 211.694 150.472 222.5 150.472C233.306 150.472 243.496 153.137 252.472 157.82C258.079 127.629 284.597 104.689 316.388 104.689C352.243 104.689 381.413 133.859 381.413 169.714C381.413 190.06 372.013 208.246 357.336 220.179C376.513 231.908 390.303 251.614 394.066 274.646C403.211 265.766 410.614 257.81 415.428 251.342C433.144 227.545 445 198.766 445 166.792Z" fill="#E10714"/>
<path d="M167.563 169.714C167.563 148.237 150.09 130.764 128.612 130.764C107.134 130.764 89.6606 148.237 89.6606 169.714C89.6606 191.193 107.134 208.666 128.612 208.666C150.09 208.666 167.563 191.193 167.563 169.714Z" fill="#035034"/>
<path d="M369.027 297.603V287.378C369.027 258.353 345.414 234.74 316.389 234.74C294.387 234.74 274.954 248.483 267.257 268.45C287.759 282.673 301.213 306.374 301.213 333.162V353.598C323.982 335.597 348.271 315.812 369.027 297.603Z" fill="#035034"/>
<path d="M316.389 130.763C294.912 130.763 277.438 148.236 277.438 169.714C277.438 191.192 294.911 208.665 316.389 208.665C337.867 208.665 355.339 191.192 355.339 169.714C355.339 148.237 337.866 130.763 316.389 130.763Z" fill="#035034"/>
<path d="M275.139 373.974V333.161C275.139 304.135 251.526 280.522 222.501 280.522C193.476 280.522 169.862 304.136 169.862 333.161V373.973C199.865 397.168 222.5 413.842 222.5 413.842C222.5 413.842 245.134 397.168 275.139 373.974Z" fill="#035034"/>
<path d="M228.674 253.962C249.906 250.52 264.328 230.518 260.887 209.286C257.445 188.054 237.442 173.632 216.209 177.074C194.977 180.516 180.555 200.518 183.996 221.75C187.438 242.982 207.441 257.404 228.674 253.962Z" fill="#035034"/>
</g>
<defs>
<clipPath id="clip0_56_50">
<rect width="445" height="445" fill="white"/>
</clipPath>
</defs>
</svg>
