<svg width="80" height="80" viewBox="0 0 80 80" fill="none" xmlns="http://www.w3.org/2000/svg">
<path d="M20.8333 10C17.9602 10 15.2047 11.1414 13.173 13.173C11.1414 15.2047 10 17.9602 10 20.8333V59.1667C10 62.0398 11.1414 64.7953 13.173 66.827C15.2047 68.8586 17.9602 70 20.8333 70H59.1667C62.0398 70 64.7953 68.8586 66.827 66.827C68.8586 64.7953 70 62.0398 70 59.1667V20.8333C70 17.9602 68.8586 15.2047 66.827 13.173C64.7953 11.1414 62.0398 10 59.1667 10H20.8333ZM26.3467 32.59C29.9267 30.9667 34.7567 30 40 30C45.2433 30 50.0733 30.9633 53.6533 32.59C57.0833 34.15 60 36.6433 60 40V45.01C60.0001 45.7018 59.8566 46.3861 59.5787 47.0196C59.3008 47.6531 58.8944 48.222 58.3853 48.6904C57.8762 49.1588 57.2754 49.5164 56.621 49.7407C55.9666 49.9649 55.2727 50.051 54.5833 49.9933L50.66 49.6667C49.5906 49.5774 48.5784 49.1464 47.7728 48.4375C46.9673 47.7286 46.4112 46.7793 46.1867 45.73L45.2433 41.3133C45.2224 41.1994 45.1818 41.09 45.1233 40.99L45.08 40.9367C44.4067 40.5867 42.86 40 40 40C37.14 40 35.5933 40.5867 34.92 40.9367L34.9133 40.9433L34.8767 40.99C34.8186 41.089 34.778 41.1972 34.7567 41.31L33.8133 45.73C33.5882 46.7787 33.0318 47.7272 32.2263 48.4355C31.4208 49.1438 30.4089 49.5742 29.34 49.6633L25.4167 49.9933C24.7273 50.051 24.0334 49.9649 23.379 49.7407C22.7246 49.5164 22.1238 49.1588 21.6147 48.6904C21.1056 48.222 20.6992 47.6531 20.4213 47.0196C20.1434 46.3861 19.9999 45.7018 20 45.01V40C20 36.6433 22.9167 34.15 26.3467 32.59Z" fill="#FFB20F"/>
</svg>
