<svg width="341" height="341" viewBox="0 0 341 341" fill="none" xmlns="http://www.w3.org/2000/svg">
<g clip-path="url(#clip0_56_252)">
<path d="M82.7256 125.126C95.523 125.126 105.897 114.752 105.897 101.954C105.897 89.157 95.523 78.7827 82.7256 78.7827C69.9283 78.7827 59.554 89.157 59.554 101.954C59.554 114.752 69.9283 125.126 82.7256 125.126Z" fill="#035034"/>
<path d="M224.482 46.3433C237.279 46.3433 247.653 35.969 247.653 23.1717C247.653 10.3743 237.279 0 224.482 0C211.684 0 201.31 10.3743 201.31 23.1717C201.31 35.969 211.684 46.3433 224.482 46.3433Z" fill="#035034"/>
<path d="M311.882 252.89H301.297C301.541 252.806 301.785 252.73 302.027 252.631C308.604 249.921 311.74 242.392 309.03 235.813L286.64 181.468L284.946 140.991C284.879 139.378 284.505 137.854 283.904 136.454L267.178 61.4561C265.297 53.0183 256.931 47.7034 248.493 49.5849L221.248 55.661C212.81 57.5426 207.495 65.9085 209.377 74.3464L211.816 85.2812L222.412 68.5593L211.351 100.469L174.883 116.151C169.654 118.399 167.238 124.461 169.487 129.689C171.734 134.915 177.793 137.334 183.024 135.085L223.67 117.607C226.33 116.463 228.386 114.252 229.336 111.515L241.886 75.3128L237.855 114.468C237.027 122.507 230.217 124.609 227.232 125.891L221.429 128.386L224.832 143.645L213.668 174.081C213.348 174.954 213.123 175.859 212.997 176.779L204.53 238.984C203.688 245.17 207.389 250.926 213.072 252.891H202.262C199.636 252.891 197.508 255.02 197.508 257.646V296.946H146.011C150.048 294.311 152.443 289.52 151.75 284.425L143.282 222.221C142.525 216.661 138.257 212.231 132.729 211.268L108.608 207.065V185.187L78.2346 160.432L112.692 177.192C115.296 178.459 118.313 178.571 121.005 177.501L162.121 161.162C167.41 159.06 169.993 153.069 167.892 147.779C165.79 142.49 159.798 139.907 154.509 142.008L117.619 156.668L87.2499 141.897L108.485 146.681C107.532 138.947 100.945 132.96 92.9544 132.96H65.0399C56.3949 132.96 49.387 139.968 49.387 148.613V228.925H49.401L47.73 268.864L25.3389 323.208C22.6282 329.787 25.7645 337.316 32.3421 340.026C38.9251 342.738 46.4512 339.597 49.1599 333.023L72.4162 276.579C72.9883 275.189 73.314 273.711 73.3759 272.21L75.1642 229.464C75.1715 229.282 75.1595 229.105 75.1595 228.926H85.7806C87.6248 229.681 85.8938 229.258 119.025 235.032L126.222 287.901C126.746 291.759 128.936 294.974 131.96 296.947H83.1325C80.507 296.947 78.3778 299.076 78.3778 301.702V336.249C78.3778 338.874 80.5064 341.003 83.1325 341.003C114.569 341.003 280.446 341.003 311.881 341.003C314.507 341.003 316.636 338.875 316.636 336.249C316.636 320.784 316.636 273.111 316.636 257.647C316.636 255.019 314.508 252.89 311.882 252.89ZM221.49 252.89C225.936 251.352 229.38 247.437 230.057 242.457L238.336 181.638L250.904 147.369L259.347 145.486L260.993 184.814C261.055 186.315 261.381 187.793 261.953 189.182L285.208 245.627C286.673 249.183 289.55 251.725 292.921 252.89H221.49Z" fill="#035034"/>
</g>
<defs>
<clipPath id="clip0_56_252">
<rect width="341" height="341" fill="white"/>
</clipPath>
</defs>
</svg>
