<svg width="72" height="72" viewBox="0 0 72 72" fill="none" xmlns="http://www.w3.org/2000/svg">
<path d="M36.003 6C52.572 6 66.003 19.431 66.003 36C66.003 52.569 52.572 66 36.003 66C30.7012 66.0091 25.4927 64.6061 20.913 61.935L6.01498 66L10.071 51.096C7.39785 46.5148 5.99368 41.3041 6.00298 36C6.00298 19.431 19.434 6 36.003 6ZM25.779 21.9L25.179 21.924C24.791 21.9507 24.412 22.0526 24.063 22.224C23.7377 22.4085 23.4407 22.6389 23.181 22.908C22.821 23.247 22.617 23.541 22.398 23.826C21.2883 25.2687 20.6909 27.0399 20.7 28.86C20.706 30.33 21.09 31.761 21.69 33.099C22.917 35.805 24.936 38.67 27.6 41.325C28.242 41.964 28.872 42.606 29.55 43.203C32.8603 46.1172 36.8048 48.2189 41.07 49.341L42.774 49.602C43.329 49.632 43.884 49.59 44.442 49.563C45.3155 49.5169 46.1685 49.2804 46.941 48.87C47.3335 48.667 47.7169 48.4468 48.09 48.21C48.09 48.21 48.217 48.124 48.465 47.94C48.87 47.64 49.119 47.427 49.455 47.076C49.707 46.816 49.917 46.514 50.085 46.17C50.319 45.681 50.553 44.748 50.649 43.971C50.721 43.377 50.7 43.053 50.691 42.852C50.679 42.531 50.412 42.198 50.121 42.057L48.375 41.274C48.375 41.274 45.765 40.137 44.169 39.411C44.0019 39.3383 43.823 39.2966 43.641 39.288C43.4357 39.2665 43.2282 39.2894 43.0325 39.3552C42.8369 39.4209 42.6576 39.5279 42.507 39.669C42.492 39.663 42.291 39.834 40.122 42.462C39.9975 42.6293 39.826 42.7557 39.6294 42.8252C39.4328 42.8946 39.2199 42.904 39.018 42.852C38.8225 42.7999 38.631 42.7337 38.445 42.654C38.073 42.498 37.944 42.438 37.689 42.33C35.9666 41.5797 34.3723 40.5644 32.964 39.321C32.586 38.991 32.235 38.631 31.875 38.283C30.6948 37.1526 29.6662 35.874 28.815 34.479L28.638 34.194C28.5128 34.0014 28.4101 33.795 28.332 33.579C28.218 33.138 28.515 32.784 28.515 32.784C28.515 32.784 29.244 31.986 29.583 31.554C29.913 31.134 30.192 30.726 30.372 30.435C30.726 29.865 30.837 29.28 30.651 28.827C29.811 26.775 28.943 24.734 28.047 22.704C27.87 22.302 27.345 22.014 26.868 21.957C26.706 21.937 26.544 21.921 26.382 21.909C25.9792 21.8859 25.5752 21.8899 25.173 21.921L25.779 21.9Z" fill="#FFB20F"/>
</svg>
