<svg width="79" height="79" viewBox="0 0 79 79" fill="none" xmlns="http://www.w3.org/2000/svg">
<path d="M64.5397 23.025C64.2895 22.0441 63.5785 21.3035 62.7655 21.0764C61.3237 20.6715 54.3158 19.7498 39.5033 19.7498C24.6908 19.7498 17.6861 20.6715 16.2345 21.0764C15.4313 21.3002 14.7203 22.0408 14.4669 23.025C14.1081 24.4207 13.1699 30.2667 13.1699 39.4998C13.1699 48.733 14.1081 54.5757 14.4669 55.9779C14.717 56.9555 15.428 57.6962 16.2378 57.92C17.6861 58.3282 24.6875 59.2498 39.5 59.2498C54.3125 59.2498 61.3204 58.3282 62.7688 57.9233C63.5719 57.6995 64.2829 56.9588 64.5364 55.9746C64.8985 54.579 65.8333 48.7165 65.8333 39.4998C65.8333 30.2832 64.8985 24.424 64.5397 23.025ZM70.9124 21.3891C72.4166 27.2548 72.4166 39.4998 72.4166 39.4998C72.4166 39.4998 72.4166 51.7448 70.9124 57.6106C70.0763 60.8529 67.6306 63.4039 64.5331 64.2663C58.9109 65.8332 39.5 65.8332 39.5 65.8332C39.5 65.8332 20.1022 65.8332 14.4669 64.2663C11.3562 63.3908 8.91381 60.843 8.0876 57.6106C6.58331 51.7448 6.58331 39.4998 6.58331 39.4998C6.58331 39.4998 6.58331 27.2548 8.0876 21.3891C8.92369 18.1468 11.3694 15.5958 14.4669 14.7333C20.1055 13.1665 39.5033 13.1665 39.5033 13.1665C39.5033 13.1665 58.9109 13.1665 64.5364 14.7333C67.6437 15.6089 70.0894 18.1567 70.9156 21.3891M32.9199 51.0207V27.979L52.6699 39.4998L32.9199 51.0207Z" fill="#FFB20F"/>
</svg>
